<?xml version="1.0" standalone="no"?>
<!DOCTYPE svg PUBLIC "-//W3C//DTD SVG 20010904//EN"
 "http://www.w3.org/TR/2001/REC-SVG-20010904/DTD/svg10.dtd">
<svg version="1.0" xmlns="http://www.w3.org/2000/svg"
 width="938.000000pt" height="938.000000pt" viewBox="0 0 938.000000 938.000000"
 preserveAspectRatio="xMidYMid meet">
<metadata>
Created by potrace 1.11, written by Peter Selinger 2001-2013
</metadata>
<g transform="translate(0.000000,938.000000) scale(0.100000,-0.100000)"
fill="#000000" stroke="none">
<path d="M4485 8791 c6 -10 4 -13 -7 -8 -9 3 -21 0 -28 -6 -10 -9 -11 -9 -6 1
8 13 -19 13 -41 -1 -8 -5 -13 -3 -13 4 0 8 -5 7 -17 -2 -11 -10 -14 -10 -9 -1
4 6 2 12 -3 12 -6 0 -11 -4 -11 -9 0 -5 -10 -7 -22 -3 -16 4 -19 2 -13 -9 6
-11 5 -11 -5 -2 -10 9 -18 9 -34 1 -19 -10 -20 -10 -7 6 12 14 12 16 -3 10 -9
-3 -16 -11 -16 -17 0 -6 -3 -7 -7 -4 -3 4 -13 1 -21 -6 -13 -9 -14 -9 -8 1 4
6 3 12 -1 12 -5 0 -15 -6 -22 -12 -11 -10 -13 -10 -7 0 9 15 -10 16 -20 1 -4
-8 -9 -7 -14 2 -7 10 -11 10 -24 0 -9 -7 -22 -11 -30 -8 -8 3 -17 1 -20 -6 -3
-8 -5 -7 -5 2 -1 11 -5 10 -17 -5 -8 -10 -13 -13 -9 -6 3 6 2 12 -2 12 -5 0
-15 -6 -22 -12 -11 -11 -12 -10 -6 2 8 13 7 13 -8 1 -12 -10 -17 -10 -17 -2 0
8 -6 7 -16 -3 -19 -19 -28 -21 -18 -3 5 8 2 8 -9 -2 -9 -7 -17 -10 -17 -5 0 5
-5 2 -10 -6 -9 -13 -10 -13 -10 0 0 13 -1 13 -10 0 -8 -12 -10 -12 -10 -1 0
11 -3 11 -15 1 -8 -6 -19 -9 -25 -5 -5 3 -10 2 -10 -3 0 -6 -10 -8 -22 -4 -13
3 -19 1 -15 -5 4 -6 -6 -9 -23 -8 -17 1 -30 -3 -30 -8 0 -5 -8 -3 -17 4 -9 8
-14 9 -10 3 4 -7 0 -15 -9 -18 -23 -9 -26 -8 -18 7 6 8 3 8 -9 -2 -9 -7 -23
-11 -32 -7 -8 3 -14 2 -14 -2 3 -19 -2 -25 -11 -12 -6 9 -10 11 -10 3 0 -7 -7
-10 -15 -7 -8 4 -15 1 -15 -7 0 -7 -3 -9 -7 -6 -3 4 -13 1 -21 -6 -13 -9 -14
-9 -8 0 5 9 2 11 -8 7 -9 -3 -13 -11 -9 -18 4 -6 -1 -5 -10 3 -12 10 -17 10
-17 2 0 -8 -8 -10 -22 -6 -16 6 -20 4 -15 -8 5 -13 1 -14 -23 -7 -22 6 -28 5
-24 -5 4 -9 -2 -13 -20 -11 -14 2 -26 -1 -26 -6 0 -5 -5 -6 -11 -2 -6 3 -14 2
-18 -4 -4 -6 -22 -14 -41 -17 -19 -3 -38 -11 -42 -18 -4 -7 -8 -7 -8 -2 0 6
-5 3 -11 -5 -8 -12 -12 -12 -16 -2 -3 9 -10 7 -24 -9 -13 -15 -19 -17 -19 -8
-1 10 -5 8 -15 -5 -11 -14 -15 -16 -15 -5 0 12 -2 12 -9 0 -5 -8 -14 -10 -21
-6 -9 6 -11 4 -5 -5 6 -10 4 -12 -8 -7 -12 4 -17 1 -17 -11 0 -15 -2 -15 -10
-2 -7 11 -10 11 -10 2 0 -7 -4 -10 -10 -7 -5 3 -10 -2 -10 -12 0 -15 -2 -16
-10 -3 -7 11 -10 11 -10 2 0 -7 -4 -10 -10 -7 -5 3 -10 1 -10 -4 0 -6 -3 -10
-7 -9 -12 2 -60 -20 -67 -30 -3 -5 -17 -8 -31 -7 -14 2 -23 0 -21 -4 3 -4 -4
-13 -16 -20 -16 -10 -19 -10 -12 1 4 8 -1 6 -12 -3 -10 -9 -25 -14 -33 -11 -9
3 -11 0 -6 -8 6 -10 4 -12 -9 -7 -9 4 -15 3 -11 -2 3 -5 -8 -12 -25 -16 -17
-4 -28 -11 -24 -16 3 -5 -2 -9 -12 -9 -9 0 -23 -8 -31 -17 -8 -10 -12 -12 -8
-5 9 18 -6 15 -22 -5 -10 -12 -12 -13 -8 -3 4 8 -1 6 -9 -4 -9 -11 -23 -21
-33 -22 -9 -2 -19 -8 -23 -14 -4 -7 -11 -12 -16 -13 -5 -1 -8 -5 -7 -8 1 -4
-7 -4 -19 -1 -14 3 -19 1 -14 -6 4 -7 2 -12 -3 -12 -20 0 -26 -3 -36 -17 -6
-8 -16 -13 -22 -11 -6 2 -20 -7 -31 -20 -11 -13 -29 -24 -40 -25 -12 0 -19 -4
-17 -7 5 -8 -22 -30 -29 -23 -3 4 -6 0 -6 -7 0 -7 -3 -11 -6 -7 -4 3 -13 -1
-21 -9 -8 -8 -19 -12 -24 -9 -5 4 -6 -1 -3 -10 4 -9 3 -15 -2 -14 -28 5 -43
-2 -37 -18 5 -12 2 -15 -10 -10 -11 4 -20 -1 -27 -14 -6 -11 -15 -17 -21 -14
-5 4 -9 -1 -9 -9 0 -9 -6 -13 -14 -10 -9 3 -21 -5 -31 -20 -10 -14 -21 -23
-26 -20 -5 3 -9 -2 -9 -10 0 -10 -6 -13 -17 -9 -12 5 -14 3 -8 -7 6 -10 4 -12
-8 -7 -12 4 -14 2 -10 -10 4 -11 2 -14 -5 -9 -8 4 -12 0 -12 -11 0 -15 -2 -16
-10 -3 -8 13 -10 13 -10 -2 0 -9 -5 -20 -12 -24 -7 -5 -8 -3 -3 7 5 8 -3 2
-18 -13 -14 -16 -31 -28 -37 -28 -5 0 -9 -3 -9 -7 3 -20 -2 -26 -11 -13 -5 8
-10 10 -10 3 0 -14 -60 -83 -73 -83 -12 0 -37 -26 -37 -40 0 -6 -4 -8 -10 -5
-5 3 -10 -1 -10 -10 0 -11 -5 -15 -15 -11 -9 3 -15 0 -15 -9 0 -8 -5 -15 -10
-15 -6 0 -9 -6 -8 -12 2 -7 -5 -12 -14 -10 -13 2 -18 -4 -18 -19 0 -15 -4 -19
-16 -15 -10 4 -13 2 -8 -6 5 -8 2 -9 -11 -4 -15 5 -16 4 -5 -9 8 -10 9 -15 1
-15 -11 0 -49 -33 -53 -47 -2 -5 -6 -7 -10 -5 -5 1 -8 -5 -8 -13 0 -8 -9 -19
-20 -25 -11 -6 -20 -17 -20 -25 0 -8 -5 -15 -11 -15 -5 0 -7 5 -3 12 5 7 3 8
-5 4 -7 -5 -10 -10 -7 -13 11 -11 -15 -42 -29 -37 -11 5 -13 2 -8 -12 5 -13 3
-15 -8 -9 -12 8 -12 6 0 -8 12 -15 12 -17 -4 -11 -13 5 -16 4 -11 -4 4 -8 0
-12 -11 -12 -15 0 -16 -2 -3 -10 11 -7 11 -10 2 -10 -7 0 -23 -10 -35 -21 -12
-12 -15 -19 -7 -15 8 4 7 1 -3 -7 -29 -24 -67 -79 -61 -89 3 -5 2 -8 -3 -7
-20 3 -34 -2 -28 -11 4 -6 11 -7 17 -4 7 4 8 2 4 -5 -4 -6 -11 -9 -16 -6 -4 3
-11 -2 -14 -11 -3 -8 -10 -12 -16 -9 -6 3 -7 -1 -4 -9 4 -10 1 -16 -10 -16 -9
0 -13 -6 -10 -15 4 -8 -1 -17 -10 -21 -9 -3 -13 -11 -9 -17 4 -6 0 -8 -11 -4
-11 4 -15 3 -11 -4 4 -6 -1 -19 -10 -29 -9 -10 -14 -24 -9 -31 5 -8 3 -10 -5
-5 -8 5 -14 0 -18 -13 -3 -12 -10 -21 -15 -21 -5 0 -6 -5 -2 -12 5 -8 2 -9
-11 -4 -14 5 -15 3 -7 -6 11 -14 -10 -43 -22 -30 -4 3 -4 -2 0 -12 6 -14 4
-17 -6 -11 -8 5 -11 3 -8 -6 3 -8 -4 -19 -16 -26 -12 -7 -15 -12 -8 -13 7 0
10 -5 7 -10 -4 -6 -11 -8 -16 -5 -5 3 -6 -1 -3 -9 4 -9 -1 -18 -10 -22 -9 -3
-16 -10 -16 -16 0 -5 6 -6 12 -2 7 4 1 -4 -15 -19 -28 -27 -36 -43 -14 -32 6
4 4 0 -5 -8 -10 -8 -15 -17 -11 -20 3 -4 -1 -9 -10 -13 -9 -3 -13 -12 -10 -21
4 -10 2 -14 -5 -9 -6 4 -12 -3 -14 -16 -2 -14 -9 -22 -18 -20 -12 3 -12 1 -3
-9 10 -10 9 -15 -5 -26 -11 -9 -12 -12 -2 -7 8 4 5 -4 -7 -18 -13 -13 -23 -32
-23 -42 0 -9 -4 -15 -9 -11 -6 3 -8 -4 -6 -15 2 -11 -1 -20 -7 -20 -5 0 -8 -7
-4 -15 3 -9 -1 -15 -11 -15 -13 0 -14 -2 -2 -17 10 -12 10 -14 1 -9 -7 4 -14
0 -18 -11 -3 -10 -10 -26 -15 -36 -5 -10 -7 -22 -4 -26 3 -5 -3 -12 -12 -15
-15 -6 -15 -8 -3 -16 13 -8 12 -10 -2 -10 -9 0 -20 -5 -24 -12 -4 -7 -3 -8 4
-4 7 4 12 2 12 -3 0 -6 -5 -11 -11 -11 -8 0 -8 -4 0 -14 9 -11 9 -16 0 -22 -8
-4 -9 -3 -5 4 4 7 3 12 -3 12 -13 0 -25 -56 -15 -72 5 -8 1 -7 -11 2 -17 14
-18 14 -6 -9 11 -19 11 -22 0 -16 -9 6 -11 3 -6 -8 4 -12 1 -17 -11 -17 -15 0
-15 -2 -2 -10 8 -5 10 -10 5 -10 -6 0 -12 -10 -12 -22 -1 -13 -7 -24 -13 -26
-5 -2 -10 -8 -10 -13 0 -6 6 -7 12 -3 10 6 10 5 1 -8 -7 -8 -9 -19 -5 -23 4
-5 1 -5 -5 -1 -9 5 -13 -1 -13 -18 0 -14 -4 -26 -10 -26 -5 0 -6 -7 -3 -17 5
-12 3 -14 -8 -8 -12 8 -12 6 0 -8 10 -13 10 -17 1 -17 -7 0 -10 -7 -6 -15 3
-8 1 -15 -5 -15 -7 0 -9 -11 -5 -27 4 -18 3 -23 -2 -15 -7 10 -11 7 -17 -15
-11 -40 -12 -56 -1 -71 6 -9 4 -11 -8 -6 -18 7 -22 -11 -4 -22 8 -5 7 -10 -4
-18 -17 -12 -18 -16 -18 -52 0 -14 -4 -23 -8 -20 -5 3 -9 -1 -9 -9 0 -8 5 -11
11 -8 6 3 5 0 -1 -8 -7 -7 -13 -23 -13 -36 0 -13 -3 -23 -7 -23 -5 0 -9 -17
-10 -38 -2 -44 -6 -62 -17 -81 -6 -10 -5 -12 2 -7 13 8 17 -6 5 -18 -7 -7 -10
-20 -16 -66 -2 -14 -6 -31 -10 -37 -4 -7 -3 -14 2 -18 6 -3 8 -12 5 -20 -4 -8
-11 -12 -16 -9 -6 4 -6 -1 0 -13 6 -11 7 -25 2 -33 -5 -9 -5 -19 1 -26 7 -8 6
-15 -2 -20 -8 -5 -9 -3 -4 6 5 9 4 11 -4 6 -9 -6 -9 -11 0 -22 9 -11 8 -14 -2
-14 -9 0 -10 -3 -4 -8 13 -9 18 -35 5 -27 -14 9 -13 -8 2 -23 9 -9 7 -13 -6
-18 -15 -6 -15 -7 1 -21 10 -8 13 -12 6 -9 -15 8 -22 -15 -11 -36 6 -12 5 -18
-3 -18 -8 0 -7 -5 2 -17 8 -9 9 -14 3 -10 -8 4 -10 -7 -9 -36 1 -23 -2 -49 -6
-58 -5 -9 -5 -19 -2 -23 10 -10 11 -66 1 -66 -5 0 -4 -9 2 -19 7 -14 7 -22 0
-26 -8 -5 -8 -11 0 -20 8 -10 7 -14 -2 -18 -10 -4 -10 -8 1 -15 12 -9 12 -13
2 -26 -8 -9 -9 -16 -4 -16 11 0 11 -29 0 -47 -4 -6 -2 -13 4 -15 9 -3 9 -9 0
-25 -8 -17 -8 -24 1 -29 7 -5 8 -3 3 6 -5 9 -4 11 4 6 9 -6 9 -11 -1 -23 -7
-9 -11 -19 -10 -22 20 -33 23 -43 13 -37 -6 4 -11 2 -11 -3 0 -6 6 -11 13 -11
9 0 9 -2 0 -8 -7 -5 -9 -13 -4 -21 5 -8 7 -26 4 -41 -2 -16 1 -31 8 -35 8 -6
7 -10 -2 -16 -12 -8 -11 -11 1 -19 12 -8 13 -11 1 -19 -11 -7 -11 -9 0 -13 9
-3 13 -18 10 -47 -2 -31 1 -41 9 -36 9 6 9 2 1 -14 -8 -14 -8 -21 -1 -21 7 0
7 -7 -1 -21 -6 -12 -7 -19 -1 -15 5 3 13 -1 16 -10 3 -8 2 -12 -4 -9 -6 3 -10
1 -10 -4 0 -6 4 -11 9 -11 5 0 8 -12 5 -26 -3 -19 -1 -24 8 -18 10 6 10 4 0
-8 -11 -14 -10 -18 5 -27 10 -6 13 -11 5 -11 -9 0 -10 -5 -4 -17 5 -10 7 -24
4 -32 -3 -9 0 -11 8 -6 9 6 9 3 1 -14 -9 -16 -9 -21 0 -21 6 0 9 -9 6 -20 -3
-11 -1 -20 4 -20 5 0 9 -5 9 -11 0 -5 -6 -7 -12 -3 -7 4 -4 -3 7 -16 12 -14
14 -20 5 -15 -12 7 -13 6 -3 -6 6 -8 13 -25 15 -39 1 -14 9 -30 17 -36 10 -8
11 -13 2 -18 -8 -5 -8 -13 -1 -26 6 -11 9 -25 8 -32 -2 -7 2 -12 9 -11 7 2 10
-4 7 -12 -4 -8 -11 -12 -17 -8 -6 3 -7 1 -3 -6 4 -6 12 -8 18 -5 7 5 9 0 6
-14 -3 -12 0 -23 7 -26 8 -3 11 -15 7 -32 -4 -20 -2 -25 8 -19 8 5 11 4 6 -3
-3 -6 -2 -13 3 -16 5 -4 8 -17 6 -31 -1 -14 2 -25 6 -25 5 0 9 -9 9 -20 0 -11
6 -20 13 -20 8 0 7 -4 -3 -10 -13 -8 -8 -14 11 -12 3 1 4 -10 1 -23 -2 -14 0
-25 7 -25 6 0 8 -7 4 -17 -5 -12 -3 -14 7 -8 9 6 11 4 6 -4 -5 -7 0 -19 10
-27 11 -9 13 -13 7 -9 -18 9 -16 -11 3 -29 9 -10 11 -16 4 -16 -7 0 -5 -7 4
-16 9 -8 14 -19 11 -24 -3 -5 -1 -11 5 -15 5 -3 10 -17 10 -31 0 -14 6 -24 14
-24 9 0 12 -7 9 -20 -4 -14 0 -20 11 -20 9 0 13 -6 10 -14 -3 -8 3 -24 14 -36
11 -12 18 -32 16 -45 -1 -14 2 -23 6 -20 5 3 11 1 15 -5 3 -5 0 -10 -7 -10 -8
0 -6 -5 5 -11 9 -6 15 -14 12 -20 -4 -5 1 -12 9 -15 9 -3 13 -10 10 -15 -3 -5
0 -9 6 -9 6 0 9 -4 5 -9 -3 -5 2 -16 10 -24 11 -12 12 -17 2 -20 -7 -3 -5 -6
5 -6 11 -1 15 -6 12 -16 -4 -8 1 -17 9 -21 9 -3 13 -12 10 -21 -4 -11 -2 -14
5 -9 11 6 17 -5 13 -26 0 -5 4 -8 9 -8 6 0 10 -5 10 -11 0 -7 8 -18 17 -26 10
-8 12 -12 6 -8 -16 8 -17 -1 -3 -18 41 -48 49 -61 44 -68 -3 -5 -1 -9 4 -9 5
0 12 -9 15 -21 3 -12 10 -18 16 -14 7 4 8 0 4 -11 -5 -13 -3 -15 7 -9 9 5 11
4 6 -4 -4 -7 2 -19 14 -29 12 -10 23 -30 23 -44 2 -20 5 -24 15 -16 9 8 14 3
18 -21 4 -18 16 -38 26 -46 13 -8 17 -18 12 -27 -4 -7 -4 -10 1 -6 9 8 35 -15
35 -31 0 -6 5 -11 11 -11 6 0 9 -7 6 -15 -4 -8 -1 -17 5 -21 7 -5 8 -2 3 6 -5
9 -4 11 3 6 7 -4 12 -14 12 -22 0 -8 5 -12 10 -9 5 3 10 -2 10 -13 0 -22 33
-55 45 -45 4 5 5 0 2 -9 -6 -17 15 -43 26 -31 4 3 7 1 7 -5 0 -6 11 -23 25
-38 13 -14 22 -31 18 -37 -3 -6 -1 -7 5 -3 7 4 12 1 12 -9 0 -9 5 -13 10 -10
6 3 10 -1 10 -10 0 -9 5 -13 10 -10 9 6 14 -8 11 -27 0 -5 8 -8 20 -8 11 0 18
-4 15 -9 -7 -11 27 -51 44 -51 7 0 11 -3 7 -6 -8 -8 18 -34 34 -34 7 0 9 -3 6
-6 -7 -7 30 -44 45 -44 4 0 7 -3 7 -7 -3 -20 2 -34 11 -28 5 3 10 1 10 -5 0
-6 5 -8 10 -5 6 3 10 0 10 -7 0 -20 58 -70 71 -62 7 4 9 3 6 -3 -4 -6 2 -20
12 -32 14 -16 21 -18 24 -9 4 9 6 8 6 -3 1 -9 8 -20 17 -23 9 -3 12 -11 8 -18
-5 -9 -2 -8 9 1 15 12 17 12 11 -3 -4 -9 -3 -16 2 -14 5 2 11 -1 13 -7 6 -16
40 -37 50 -30 6 3 8 -4 6 -15 -2 -11 0 -18 5 -15 5 3 18 -3 30 -15 11 -11 20
-18 20 -15 0 3 6 0 14 -7 8 -7 11 -17 8 -23 -3 -5 3 -3 13 5 11 9 16 10 11 3
-4 -7 -3 -13 2 -13 5 0 14 -10 20 -23 6 -12 11 -16 11 -9 1 8 10 4 25 -10 13
-13 21 -26 19 -30 -2 -4 3 -5 11 -2 9 4 16 1 16 -6 0 -7 7 -10 16 -6 8 3 13 2
11 -2 -3 -4 1 -13 9 -20 8 -7 14 -10 14 -7 0 3 9 -4 20 -15 12 -12 25 -18 29
-15 5 2 15 -3 22 -13 13 -16 13 -16 -6 -2 -19 14 -19 14 -6 -2 7 -10 17 -16
21 -13 4 2 18 -4 30 -15 12 -11 27 -17 33 -13 6 3 7 1 3 -5 -4 -7 -1 -12 8
-12 9 0 16 -5 16 -10 0 -6 6 -9 13 -8 6 2 11 -3 9 -9 -1 -7 7 -13 18 -13 11 0
20 -4 20 -9 0 -5 11 -12 25 -15 16 -4 23 -11 19 -18 -4 -7 -3 -8 4 -4 15 9 54
-18 44 -30 -4 -5 -3 -6 2 -2 5 4 16 2 24 -5 13 -9 14 -9 8 1 -4 6 -2 12 3 12
6 0 11 -7 11 -15 0 -8 8 -15 19 -15 10 0 24 -7 31 -15 7 -8 16 -12 21 -9 5 3
9 0 9 -7 0 -6 8 -9 20 -6 10 3 19 2 18 -2 -2 -19 3 -31 11 -26 5 3 12 1 16 -5
4 -6 11 -8 16 -5 5 4 17 1 26 -4 10 -6 14 -11 8 -11 -5 0 3 -7 19 -15 15 -8
32 -12 37 -9 5 3 9 1 9 -4 0 -5 12 -14 26 -20 20 -10 24 -10 19 0 -4 7 1 4 9
-6 9 -11 16 -16 17 -10 0 5 4 0 9 -11 l9 -20 1 20 c1 18 1 19 11 3 5 -10 17
-18 25 -18 9 0 12 -5 8 -11 -4 -7 1 -7 16 1 12 7 20 8 17 3 -3 -4 6 -13 19
-20 13 -6 21 -7 18 -1 -3 5 3 4 15 -4 12 -7 21 -17 21 -22 0 -4 9 -6 20 -3 11
3 20 1 20 -4 0 -4 8 -5 17 -2 12 5 15 2 10 -10 -3 -9 -2 -17 3 -17 6 0 10 5
10 11 0 8 4 8 15 -1 8 -6 20 -8 26 -4 8 4 9 3 5 -4 -5 -8 2 -12 18 -12 14 0
26 -6 26 -12 0 -9 4 -8 10 2 6 10 10 11 10 3 0 -7 9 -13 19 -13 11 0 23 -5 26
-10 3 -6 16 -10 29 -10 12 0 28 -6 35 -13 11 -10 13 -9 7 3 -5 11 -4 10 6 -2
10 -12 18 -14 31 -6 13 7 17 6 15 -3 -3 -13 3 -16 48 -18 17 -1 23 -5 18 -13
-5 -9 -2 -8 9 1 15 12 20 12 35 -1 9 -9 25 -14 35 -13 9 2 17 0 17 -4 0 -6 25
-11 68 -14 6 0 12 -5 12 -10 0 -5 8 -3 17 4 10 8 14 9 10 2 -4 -6 -3 -14 3
-18 5 -3 10 -1 10 5 0 6 5 8 13 3 6 -4 20 -6 30 -5 9 2 17 -1 17 -6 0 -6 7
-13 16 -16 10 -4 13 -2 8 6 -5 8 -2 9 12 3 10 -4 28 -8 39 -8 11 -1 23 -6 28
-11 4 -7 10 -6 17 4 7 12 10 12 10 1 0 -7 6 -11 14 -8 8 3 20 -1 27 -9 9 -11
15 -12 26 -2 11 9 16 9 24 -3 7 -12 9 -12 9 1 0 10 3 11 8 4 4 -6 32 -11 63
-10 44 1 55 -2 51 -13 -4 -11 -1 -11 16 -2 17 9 22 9 22 -1 0 -9 3 -9 10 2 8
12 10 12 10 1 0 -11 3 -11 17 0 14 12 16 12 8 0 -6 -11 -4 -13 7 -8 9 3 19 3
22 0 9 -10 56 -10 56 -1 0 5 12 1 28 -9 26 -17 26 -17 13 0 -12 16 -12 17 5
11 10 -4 25 -12 33 -18 11 -8 13 -8 7 2 -5 9 2 12 31 9 21 -1 43 -6 49 -10 6
-3 14 -3 18 0 11 11 50 9 58 -2 5 -6 8 -4 8 5 0 13 1 13 11 0 8 -11 12 -12 16
-3 3 9 10 10 22 3 10 -5 21 -6 25 -3 10 11 46 11 46 0 0 -5 7 -4 15 3 8 7 15
9 15 5 0 -4 6 -2 14 4 11 9 16 9 22 0 4 -8 3 -9 -4 -5 -7 4 -12 2 -12 -3 0
-13 17 -14 24 -2 3 4 33 8 66 7 34 -1 60 3 60 9 0 7 3 7 8 0 7 -11 51 -16 50
-6 -2 19 3 24 11 12 6 -8 14 -10 22 -5 19 12 40 14 34 4 -5 -8 8 -7 35 3 32
12 70 14 70 3 0 -6 5 -4 10 4 5 8 10 11 10 6 0 -5 7 -3 16 5 13 10 17 10 24 0
5 -9 10 -10 14 -3 4 6 13 9 21 5 9 -3 15 1 15 8 0 11 3 11 10 -1 7 -11 10 -11
10 -2 0 10 5 10 20 2 17 -9 19 -8 13 7 -6 16 -5 16 10 4 13 -10 17 -10 17 -1
0 9 4 9 17 -1 11 -10 14 -10 9 -1 -5 8 -1 12 11 13 10 1 32 2 48 3 17 1 36 5
43 9 6 5 17 5 22 2 6 -3 10 2 10 12 0 11 3 14 8 7 10 -16 44 -14 38 3 -4 11
-1 11 14 3 14 -8 20 -8 20 0 0 6 5 8 10 5 6 -4 18 -1 27 7 12 9 15 9 9 1 -5
-9 -2 -11 8 -7 9 3 13 11 9 18 -4 6 1 5 10 -3 13 -11 17 -11 17 -1 0 8 3 10 7
7 3 -4 13 -1 21 6 13 9 14 9 8 0 -5 -9 -2 -11 8 -7 9 3 14 10 11 14 -6 10 15
7 34 -4 10 -6 12 -5 7 2 -6 10 7 17 17 10 2 -2 12 4 22 12 17 13 18 13 11 0
-4 -8 0 -6 8 4 12 15 16 16 16 5 0 -9 3 -10 8 -3 7 11 60 29 76 25 5 -1 18 6
29 16 14 13 18 13 12 3 -5 -9 1 -7 15 5 15 13 21 15 16 5 -7 -13 -6 -13 6 0
12 14 29 20 71 23 10 1 16 6 13 13 -3 7 5 9 21 6 20 -4 24 -2 18 9 -7 11 -5
11 10 -1 10 -8 16 -10 12 -4 -4 7 3 14 18 18 15 4 23 11 19 17 -4 8 0 8 14 0
16 -8 21 -7 26 4 3 8 14 15 25 15 11 0 23 5 26 11 4 6 14 8 22 5 8 -3 12 -2 9
3 -3 5 1 12 10 15 10 4 13 2 9 -7 -4 -6 1 -3 9 7 9 11 16 16 16 12 0 -5 7 -3
15 4 8 7 15 9 15 4 0 -4 7 1 16 12 8 10 13 12 9 4 -4 -8 3 -4 15 10 12 14 18
19 14 11 -5 -11 -3 -13 10 -8 10 4 20 7 22 7 3 0 2 5 -2 12 -4 6 -3 8 4 4 6
-3 16 0 24 7 7 8 19 12 26 9 6 -2 15 3 18 11 3 9 14 14 25 12 11 -2 17 0 14 4
-7 13 17 29 42 26 12 -1 20 2 17 7 -3 4 3 11 13 15 10 4 20 9 23 12 10 12 50
31 65 31 9 0 14 4 11 8 -3 5 10 15 29 22 19 7 32 17 29 22 -3 4 4 8 16 8 11 0
23 7 26 15 4 8 10 12 15 9 5 -3 9 0 9 6 0 7 7 10 15 6 8 -3 14 0 12 7 -1 7 6
11 15 11 10 -1 16 3 15 9 -1 7 8 13 21 15 14 2 22 9 19 16 -3 7 1 13 9 14 8 1
21 3 29 4 12 1 12 4 2 17 -9 12 -9 13 1 7 6 -4 12 -2 12 3 0 6 3 10 8 9 4 -1
17 3 28 10 12 6 24 8 28 4 4 -3 4 1 1 10 -4 9 -1 19 6 24 8 4 10 3 5 -4 -5 -8
-2 -10 8 -6 9 3 15 9 14 12 -2 20 3 25 12 12 8 -13 10 -12 10 3 0 10 5 15 10
12 6 -3 10 1 10 10 0 9 5 13 10 10 6 -3 10 -1 10 5 0 6 5 8 12 4 8 -5 9 -2 5
10 -5 14 -3 17 8 12 8 -3 15 -1 15 5 0 6 6 7 13 3 8 -5 7 -2 -2 9 -12 15 -12
17 3 11 10 -4 18 0 22 10 3 9 11 13 17 9 6 -4 8 0 5 9 -4 8 0 15 8 15 7 0 10
-5 7 -11 -4 -6 1 -5 10 3 9 7 15 16 13 20 -2 3 2 12 10 19 8 7 14 10 14 6 0
-4 11 5 25 20 15 17 30 24 38 20 7 -5 7 -1 -2 10 -8 9 -10 16 -5 15 18 -3 37
1 31 7 -10 10 17 32 33 26 13 -5 13 -3 1 11 -12 15 -12 17 3 11 9 -3 16 -1 16
6 0 6 5 8 10 5 6 -4 9 -3 8 2 -4 10 39 53 53 53 5 0 7 5 4 10 -3 6 -1 10 5 10
6 0 8 4 5 10 -3 5 6 12 21 16 19 5 22 9 12 15 -10 7 -9 9 5 9 9 0 17 6 17 14
0 8 5 18 12 22 7 5 8 3 3 -6 -5 -9 -4 -11 3 -6 7 4 12 14 12 22 0 8 4 13 9 10
8 -5 23 16 25 36 1 3 5 10 10 15 5 5 6 2 2 -7 -5 -9 -2 -8 7 2 8 10 17 15 21
11 4 -4 4 1 0 11 -5 14 -4 17 4 12 7 -4 12 -1 12 9 0 10 5 13 12 9 8 -5 9 -2
5 10 -4 10 -3 15 3 11 6 -3 10 2 10 11 0 10 3 14 7 11 3 -4 15 7 25 24 11 18
23 27 31 23 6 -4 9 -4 5 1 -4 4 0 14 10 22 9 8 11 11 4 8 -11 -6 -12 -3 -3 14
7 11 14 21 17 21 3 0 2 -4 -1 -10 -3 -5 -1 -10 6 -10 6 0 9 8 6 20 -3 11 -2
18 3 15 9 -6 32 20 24 28 -3 3 4 8 15 12 13 4 18 11 14 22 -4 10 -2 14 4 10 6
-4 13 3 16 14 4 13 10 18 18 13 7 -4 10 -3 6 4 -9 14 3 43 14 36 5 -3 12 9 16
26 4 22 8 28 14 18 7 -10 9 -9 9 3 0 9 9 28 20 41 10 14 16 29 12 33 -4 5 -2
5 5 1 6 -3 14 -2 18 4 3 5 0 10 -7 11 -7 0 -5 4 5 8 10 4 18 10 17 15 -1 4 7
14 17 23 10 8 13 12 7 9 -6 -3 -11 1 -11 9 0 8 3 12 6 10 4 -2 15 3 26 11 10
8 16 14 13 14 -4 0 -1 12 7 27 8 15 12 30 9 35 -3 5 -1 7 4 6 6 -2 10 1 10 5
1 5 11 17 23 28 15 13 17 19 8 19 -10 1 -10 4 3 14 10 7 15 16 11 19 -3 4 -1
7 5 7 7 0 12 8 12 18 1 21 25 54 33 45 4 -3 4 4 2 17 -3 14 0 20 8 17 7 -3 13
3 14 12 4 54 7 60 22 48 12 -9 13 -9 8 0 -5 7 -1 24 8 37 9 14 14 30 10 36 -3
5 -1 10 4 10 6 0 11 7 11 16 0 9 8 28 18 42 31 44 36 56 24 48 -7 -4 -12 -3
-12 2 0 6 8 13 17 16 15 6 15 8 3 17 -12 8 -10 10 8 6 19 -5 21 -3 11 9 -8 10
-8 14 -1 14 6 0 9 7 6 15 -4 8 -1 15 6 15 6 0 9 3 7 8 -3 4 3 25 14 46 10 21
16 43 13 47 -3 5 -1 9 5 9 5 0 8 9 6 21 -3 16 -1 18 9 10 11 -9 12 -6 8 14 -2
14 0 25 6 25 6 0 9 8 8 17 -2 10 4 24 13 31 12 10 12 12 1 6 -13 -7 -13 -5 -1
9 7 9 11 17 7 17 -4 0 0 13 8 29 9 16 12 31 9 35 -4 3 -1 6 6 6 9 0 9 5 1 20
-9 16 -8 18 5 14 18 -7 20 7 3 25 -10 11 -10 13 0 7 6 -4 13 -2 13 3 3 26 4
30 12 37 4 4 7 12 7 18 0 6 -5 4 -10 -4 -7 -10 -10 -11 -10 -2 0 7 6 15 14 18
7 3 12 16 11 29 -2 13 3 26 10 29 8 2 11 15 8 30 -3 14 0 33 7 41 10 12 10 15
-1 15 -8 0 -5 6 7 15 13 10 15 14 5 15 -12 0 -11 3 1 18 9 9 14 27 12 40 -2
12 0 22 5 22 4 0 6 11 3 25 -2 14 1 32 8 40 9 10 9 15 1 15 -6 0 -11 5 -11 11
0 5 5 7 10 4 9 -6 13 19 13 78 0 9 3 17 6 17 4 0 7 9 8 20 1 13 -3 18 -10 14
-7 -3 -3 2 7 10 15 12 17 19 8 28 -9 9 -8 16 3 28 11 12 13 24 7 41 -7 17 -5
31 7 49 9 14 11 21 4 17 -7 -5 -13 -4 -13 2 0 6 5 11 10 11 7 0 7 6 0 20 -8
14 -8 20 0 20 6 0 8 5 5 10 -4 6 -1 18 7 27 9 12 9 15 1 9 -17 -9 -17 6 0 23
10 11 9 14 -1 18 -10 4 -10 8 -1 19 9 11 9 17 0 28 -9 11 -9 16 -1 21 7 4 10
15 7 25 -2 10 -1 24 4 31 4 7 3 21 -2 31 -7 13 -6 18 3 18 8 0 9 3 3 8 -13 9
-16 42 -4 42 5 0 4 11 -1 25 -7 18 -6 25 3 25 8 0 7 4 -3 10 -13 9 -13 10 0
10 9 0 11 3 5 8 -5 4 -10 14 -10 22 0 8 5 18 10 22 7 5 7 8 0 8 -6 0 -9 27 -9
62 1 37 -3 66 -10 70 -8 6 -8 8 1 8 8 0 9 9 3 30 -5 19 -5 28 1 25 5 -4 9 -2
9 4 0 5 -5 13 -10 16 -7 4 -7 12 0 25 7 13 7 21 0 25 -8 5 -7 12 2 23 8 10 9
13 1 9 -6 -4 -14 -3 -18 3 -3 5 -1 10 5 10 6 0 9 4 5 9 -3 5 -6 32 -6 60 -1
30 -6 51 -13 51 -7 0 -7 3 -1 8 6 4 11 13 13 21 3 12 1 12 -14 0 -16 -13 -16
-12 -6 8 14 25 15 36 5 30 -5 -3 -8 15 -7 39 0 25 -4 44 -10 44 -6 0 -4 5 4
10 12 8 12 10 1 10 -8 0 -11 7 -8 20 3 11 1 22 -3 25 -4 3 -6 14 -3 25 3 11 1
20 -4 20 -6 0 -9 18 -9 41 1 27 -4 44 -14 49 -8 5 -11 10 -6 10 5 0 2 8 -5 17
-8 9 -9 14 -3 10 7 -4 15 0 18 9 3 8 2 12 -4 9 -6 -3 -11 1 -11 9 -2 25 -4 29
-18 56 -13 23 -13 24 3 11 16 -13 16 -12 5 12 -7 15 -16 27 -21 27 -4 0 -8 5
-8 11 0 5 6 7 13 3 8 -6 8 -3 -2 9 -7 9 -11 23 -8 32 4 8 -1 19 -10 24 -14 8
-15 12 -4 25 11 13 11 17 -2 22 -9 3 -13 12 -10 20 3 9 -1 14 -13 14 -17 0
-16 1 2 16 10 8 13 13 7 9 -9 -4 -13 1 -13 14 0 12 -4 21 -9 21 -5 0 -8 11 -6
25 1 15 -4 29 -14 35 -11 6 -12 9 -3 10 7 0 10 5 7 10 -4 6 -10 8 -15 5 -4 -3
-6 4 -3 15 3 11 1 20 -5 20 -5 0 -13 7 -16 16 -3 8 -2 12 4 9 6 -3 10 -1 10 4
0 6 -5 11 -11 11 -5 0 -7 5 -4 10 3 6 1 10 -4 10 -6 0 -11 12 -11 26 0 16 -4
23 -11 18 -8 -4 -9 0 -4 15 4 14 2 21 -7 21 -10 0 -9 3 2 10 13 8 12 10 -3 10
-10 0 -16 4 -13 9 3 5 -3 19 -13 32 -10 13 -16 29 -14 36 2 6 -4 27 -13 45
-10 18 -18 37 -19 41 0 4 -7 12 -15 17 -11 7 -12 10 -2 10 10 0 10 4 -2 16 -9
8 -19 26 -22 40 -3 13 -11 24 -18 24 -7 0 -6 4 2 9 11 7 10 9 -3 15 -9 3 -13
10 -10 16 3 5 1 10 -4 10 -6 0 -11 9 -11 20 0 11 -7 23 -15 26 -8 4 -12 10 -9
15 3 5 1 9 -3 9 -5 0 -9 9 -10 20 -1 11 -9 27 -17 36 -9 9 -14 20 -11 25 4 5
-1 9 -10 9 -9 0 -13 5 -10 10 3 6 2 10 -4 10 -5 0 -8 9 -6 20 2 11 1 19 -3 19
-4 -1 -14 -1 -22 0 -13 1 -13 2 0 11 11 7 11 10 2 10 -7 0 -11 4 -8 8 3 5 -4
15 -14 22 -16 11 -17 17 -7 29 7 8 7 12 2 9 -6 -4 -19 1 -30 9 -20 16 -20 16
0 9 18 -6 19 -5 3 7 -10 8 -15 17 -11 20 3 4 -1 7 -9 7 -9 0 -19 7 -22 16 -6
15 -4 15 11 3 15 -12 15 -11 -1 8 -10 13 -22 20 -27 17 -4 -2 -6 5 -4 16 2 11
-1 20 -6 20 -5 0 -14 12 -19 26 -6 15 -14 22 -22 18 -6 -4 -8 -3 -4 4 3 6 -1
18 -10 26 -8 9 -12 16 -9 16 4 0 -7 13 -24 29 -21 19 -27 31 -19 34 7 3 5 6
-6 6 -11 1 -16 4 -13 7 4 4 -3 15 -14 25 -11 9 -20 20 -20 23 3 20 -1 26 -15
26 -8 0 -13 4 -10 9 3 5 -1 12 -10 15 -9 3 -12 11 -8 18 4 7 4 10 -1 6 -9 -8
-35 16 -35 32 0 7 -7 9 -16 6 -15 -6 -15 -4 -3 11 7 10 9 15 5 11 -13 -11 -39
29 -30 45 5 7 0 6 -11 -3 -10 -8 -16 -10 -12 -4 3 6 -3 17 -14 24 -10 8 -19
20 -19 27 0 7 -4 13 -10 13 -5 0 -10 6 -10 14 0 7 -9 16 -20 19 -11 3 -20 13
-20 22 0 9 -4 13 -10 10 -5 -3 -10 -1 -10 5 0 15 -46 60 -54 53 -5 -6 -10 12
-7 29 0 4 -8 10 -19 13 -11 4 -18 11 -14 16 3 5 1 8 -4 7 -5 -2 -23 12 -40 31
-18 18 -32 29 -33 25 0 -5 -4 1 -10 14 -5 13 -13 21 -18 17 -5 -3 -12 4 -16
15 -3 11 -9 19 -13 19 -28 -4 -34 1 -21 18 8 9 9 14 2 10 -6 -4 -18 0 -27 9
-9 8 -20 12 -26 9 -6 -4 -10 -3 -9 2 3 19 -2 33 -11 33 -6 0 -22 11 -35 24
-13 14 -33 27 -44 31 -12 3 -20 9 -18 13 1 4 -2 9 -8 12 -5 3 -21 17 -36 32
-14 15 -29 25 -32 21 -4 -3 -7 -1 -7 6 0 6 -11 16 -25 21 -14 5 -28 17 -31 25
-4 8 -12 15 -20 15 -17 0 -55 36 -47 44 3 3 -5 3 -17 1 -12 -2 -20 -2 -17 1 3
3 -5 15 -17 28 -16 17 -25 20 -35 12 -11 -8 -13 -8 -7 2 4 7 2 12 -4 12 -6 0
-8 5 -5 10 4 6 3 10 -2 9 -22 -4 -43 2 -38 11 3 6 -1 10 -10 10 -10 0 -13 5
-9 13 5 7 2 7 -10 -2 -14 -12 -17 -12 -14 -1 2 8 -2 14 -9 15 -7 0 -19 9 -28
20 -9 11 -14 15 -11 9 3 -6 -1 -11 -9 -11 -8 0 -12 8 -10 20 3 14 1 16 -8 9
-13 -11 -41 11 -29 22 3 4 -1 4 -11 0 -9 -3 -17 -1 -17 5 0 6 -7 8 -17 4 -10
-4 -14 -2 -10 4 3 5 -4 15 -16 20 -97 46 -137 70 -137 83 0 12 -2 12 -9 2 -7
-12 -12 -12 -30 -1 -11 8 -21 18 -21 23 0 4 -7 3 -15 -4 -12 -10 -13 -8 -10
10 3 18 2 20 -10 10 -8 -7 -15 -8 -15 -3 0 5 -18 16 -41 23 -23 8 -43 19 -46
26 -2 7 -12 11 -21 10 -9 -2 -23 3 -30 11 -8 7 -18 11 -23 8 -5 -4 -9 -1 -9 4
0 6 -9 11 -20 11 -11 0 -20 5 -20 11 0 5 -4 7 -10 4 -5 -3 -10 -2 -10 4 0 6
-7 8 -15 5 -8 -4 -17 1 -21 9 -3 9 -13 13 -26 9 -13 -3 -19 -1 -15 5 3 5 0 10
-8 10 -8 0 -11 -5 -8 -11 4 -6 -2 -4 -13 5 -28 24 -48 34 -40 21 3 -6 -13 -1
-36 10 -24 12 -51 25 -62 30 -14 7 -16 6 -11 -4 6 -10 5 -11 -6 0 -7 6 -23 12
-36 12 -13 0 -23 4 -23 9 0 6 -9 8 -21 6 -16 -3 -19 0 -15 12 5 13 4 14 -9 3
-9 -7 -15 -8 -15 -2 0 5 -9 8 -20 5 -15 -4 -20 0 -21 13 0 11 -3 14 -5 7 -5
-12 -48 -3 -88 18 -13 7 -16 7 -11 0 3 -6 1 -11 -4 -11 -6 0 -11 4 -11 9 0 5
-7 12 -16 15 -10 4 -13 2 -8 -7 5 -8 2 -7 -9 2 -10 8 -20 11 -24 8 -3 -4 -12
-2 -18 3 -7 6 -31 11 -54 13 -28 1 -41 7 -42 17 0 8 -3 10 -5 4 -3 -8 -16 -9
-39 -4 -19 4 -35 6 -35 3 0 -2 -8 3 -17 12 -15 16 -18 16 -29 1 -10 -15 -12
-15 -17 -1 -4 8 -13 12 -22 9 -9 -4 -15 -1 -15 7 0 11 -2 11 -10 -1 -7 -12
-12 -12 -22 -2 -15 15 -32 16 -22 0 4 -6 -3 -5 -15 4 -12 8 -35 14 -51 12 -17
-2 -30 1 -30 7 0 6 -6 7 -12 3 -16 -10 -48 -13 -43 -3 3 4 -4 9 -15 12 -11 3
-18 1 -14 -4 3 -5 0 -9 -5 -9 -6 0 -11 6 -11 13 0 8 -4 7 -10 -3 -7 -11 -10
-11 -10 -2 0 9 -5 10 -17 4 -23 -12 -45 -4 -36 11 4 8 1 7 -9 -1 -13 -10 -17
-10 -21 0 -4 10 -6 10 -6 -1 -1 -11 -4 -11 -16 -1 -12 10 -15 10 -15 0 0 -9
-4 -9 -17 1 -14 12 -15 12 -9 0 6 -9 2 -9 -16 3 -22 14 -26 14 -48 -1 -13 -9
-20 -12 -17 -6 4 6 -3 13 -14 16 -15 4 -19 2 -15 -9 4 -11 0 -11 -19 2 -20 13
-25 14 -25 3 0 -12 -2 -12 -9 0 -7 11 -9 11 -14 0 -4 -12 -7 -11 -16 1 -10 13
-11 13 -11 0 0 -9 -3 -11 -8 -5 -10 15 -35 12 -50 -5 -8 -8 -11 -10 -8 -3 4 6
2 14 -4 18 -5 3 -10 0 -10 -7 0 -8 -3 -9 -8 -3 -4 6 -19 10 -35 10 -20 1 -26
-3 -22 -13 4 -12 3 -13 -10 -2 -8 7 -21 10 -29 7 -7 -3 -19 0 -26 6 -10 9 -11
9 -5 -2z"/>
<path d="M1879 7723 c-13 -16 -12 -17 4 -4 16 13 21 21 13 21 -2 0 -10 -8 -17
-17z"/>
</g>
</svg>
